solid Llave ventana rellano
facet normal 0.0 0.0 -1.0
  outer loop
    vertex 13.961430996894869 30.08439714041556 0.0
    vertex 5.981542996894869 15.651801970565455 0.0
    vertex 5.981542996894869 30.08439714041556 0.0
  endloop
endfacet
facet normal 0.0 0.0 -1.0
  outer loop
    vertex 5.981542996894869 15.651801970565455 0.0
    vertex 13.961430996894869 30.08439714041556 0.0
    vertex 6.018887997668063 15.258001625328442 0.0
  endloop
endfacet
facet normal 0.0 0.0 -1.0
  outer loop
    vertex 6.018887997668063 15.258001625328442 0.0
    vertex 13.961430996894869 30.08439714041556 0.0
    vertex 6.286124187731469 14.207446405355459 0.0
  endloop
endfacet
facet normal 0.0 0.0 -1.0
  outer loop
    vertex 6.286124187731469 14.207446405355459 0.0
    vertex 13.961430996894869 30.08439714041556 0.0
    vertex 6.711886470397296 13.210547247892043 0.0
  endloop
endfacet
facet normal 0.0 0.0 -1.0
  outer loop
    vertex 6.711886470397296 13.210547247892043 0.0
    vertex 13.961430996894869 30.08439714041556 0.0
    vertex 7.286026284009363 12.291066456402854 0.0
  endloop
endfacet
facet normal 0.0 0.0 -1.0
  outer loop
    vertex 7.286026284009363 12.291066456402854 0.0
    vertex 13.961430996894869 30.08439714041556 0.0
    vertex 7.994858308061525 11.470920973473024 0.0
  endloop
endfacet
facet normal 0.0 0.0 -1.0
  outer loop
    vertex 7.994858308061525 11.470920973473024 0.0
    vertex 13.961430996894869 30.08439714041556 0.0
    vertex 8.821486669450772 10.769659963834663 0.0
  endloop
endfacet
facet normal 0.0 0.0 -1.0
  outer loop
    vertex 8.821486669450772 10.769659963834663 0.0
    vertex 13.961430996894869 30.08439714041556 0.0
    vertex 9.746207676154924 10.203998836257256 0.0
  endloop
endfacet
facet normal 0.0 0.0 -1.0
  outer loop
    vertex 9.746207676154924 10.203998836257256 0.0
    vertex 13.961430996894869 30.08439714041556 0.0
    vertex 10.746979478688065 9.78742081145679 0.0
  endloop
endfacet
facet normal 0.0 0.0 -1.0
  outer loop
    vertex 10.746979478688065 9.78742081145679 0.0
    vertex 13.961430996894869 30.08439714041556 0.0
    vertex 11.799947464381866 9.529855533136855 0.0
  endloop
endfacet
facet normal 0.0 0.0 -1.0
  outer loop
    vertex 11.799947464381866 9.529855533136855 0.0
    vertex 13.961430996894869 30.08439714041556 0.0
    vertex 13.961430996894878 17.419233140415564 0.0
  endloop
endfacet
facet normal 0.0 0.0 -1.0
  outer loop
    vertex 11.799947464381866 9.529855533136855 0.0
    vertex 13.961430996894878 17.419233140415564 0.0
    vertex 76.08169399689486 9.512384140415563 0.0
  endloop
endfacet
facet normal 0.0 0.0 -1.0
  outer loop
    vertex 76.08169399689486 9.512384140415563 0.0
    vertex 13.961430996894878 17.419233140415564 0.0
    vertex 76.08169399689486 17.419233140415564 0.0
  endloop
endfacet
facet normal 0.0 0.0 1.0
  outer loop
    vertex 6.018887997668063 15.258001625328442 7.999607999999999
    vertex 5.981542996894869 30.08439714041556 7.999607999999999
    vertex 5.981542996894869 15.651801970565455 7.999607999999999
  endloop
endfacet
facet normal 0.0 0.0 1.0
  outer loop
    vertex 5.981542996894869 30.08439714041556 7.999607999999999
    vertex 6.018887997668063 15.258001625328442 7.999607999999999
    vertex 13.961430996894869 30.08439714041556 7.999607999999999
  endloop
endfacet
facet normal 0.0 0.0 1.0
  outer loop
    vertex 13.961430996894869 30.08439714041556 7.999607999999999
    vertex 6.018887997668063 15.258001625328442 7.999607999999999
    vertex 6.286124187731469 14.207446405355459 7.999607999999999
  endloop
endfacet
facet normal 0.0 0.0 1.0
  outer loop
    vertex 13.961430996894869 30.08439714041556 7.999607999999999
    vertex 6.286124187731469 14.207446405355459 7.999607999999999
    vertex 6.711886470397296 13.210547247892043 7.999607999999999
  endloop
endfacet
facet normal 0.0 0.0 1.0
  outer loop
    vertex 13.961430996894869 30.08439714041556 7.999607999999999
    vertex 6.711886470397296 13.210547247892043 7.999607999999999
    vertex 7.286026284009363 12.291066456402854 7.999607999999999
  endloop
endfacet
facet normal 0.0 0.0 1.0
  outer loop
    vertex 13.961430996894869 30.08439714041556 7.999607999999999
    vertex 7.286026284009363 12.291066456402854 7.999607999999999
    vertex 7.994858308061525 11.470920973473024 7.999607999999999
  endloop
endfacet
facet normal 0.0 0.0 1.0
  outer loop
    vertex 13.961430996894869 30.08439714041556 7.999607999999999
    vertex 7.994858308061525 11.470920973473024 7.999607999999999
    vertex 8.821486669450772 10.769659963834663 7.999607999999999
  endloop
endfacet
facet normal 0.0 0.0 1.0
  outer loop
    vertex 13.961430996894869 30.08439714041556 7.999607999999999
    vertex 8.821486669450772 10.769659963834663 7.999607999999999
    vertex 9.746207676154924 10.203998836257256 7.999607999999999
  endloop
endfacet
facet normal 0.0 0.0 1.0
  outer loop
    vertex 13.961430996894869 30.08439714041556 7.999607999999999
    vertex 9.746207676154924 10.203998836257256 7.999607999999999
    vertex 10.746979478688065 9.78742081145679 7.999607999999999
  endloop
endfacet
facet normal 0.0 0.0 1.0
  outer loop
    vertex 13.961430996894869 30.08439714041556 7.999607999999999
    vertex 10.746979478688065 9.78742081145679 7.999607999999999
    vertex 11.799947464381866 9.529855533136855 7.999607999999999
  endloop
endfacet
facet normal 0.0 0.0 1.0
  outer loop
    vertex 13.961430996894869 30.08439714041556 7.999607999999999
    vertex 11.799947464381866 9.529855533136855 7.999607999999999
    vertex 13.961430996894878 17.419233140415564 7.999607999999999
  endloop
endfacet
facet normal 0.0 0.0 1.0
  outer loop
    vertex 13.961430996894878 17.419233140415564 7.999607999999999
    vertex 11.799947464381866 9.529855533136855 7.999607999999999
    vertex 76.08169399689486 9.512384140415563 7.999607999999999
  endloop
endfacet
facet normal 0.0 0.0 1.0
  outer loop
    vertex 13.961430996894878 17.419233140415564 7.999607999999999
    vertex 76.08169399689486 9.512384140415563 7.999607999999999
    vertex 76.08169399689486 17.419233140415564 7.999607999999999
  endloop
endfacet
facet normal 1.0 6.679660403642381e-16 0.0
  outer loop
    vertex 13.961430996894869 30.08439714041556 0.0
    vertex 13.961430996894878 17.419233140415564 7.999607999999999
    vertex 13.961430996894878 17.419233140415564 0.0
  endloop
endfacet
facet normal 1.0 6.679660403642381e-16 0.0
  outer loop
    vertex 13.961430996894878 17.419233140415564 7.999607999999999
    vertex 13.961430996894869 30.08439714041556 0.0
    vertex 13.961430996894869 30.08439714041556 7.999607999999999
  endloop
endfacet
facet normal 4.539527597537535e-17 1.0 0.0
  outer loop
    vertex 13.961430996894878 17.419233140415564 7.999607999999999
    vertex 76.08169399689486 17.419233140415564 0.0
    vertex 13.961430996894878 17.419233140415564 0.0
  endloop
endfacet
facet normal 4.539527597537535e-17 1.0 0.0
  outer loop
    vertex 76.08169399689486 17.419233140415564 0.0
    vertex 13.961430996894878 17.419233140415564 7.999607999999999
    vertex 76.08169399689486 17.419233140415564 7.999607999999999
  endloop
endfacet
facet normal 1.0 0.0 0.0
  outer loop
    vertex 76.08169399689486 17.419233140415564 0.0
    vertex 76.08169399689486 9.512384140415563 7.999607999999999
    vertex 76.08169399689486 9.512384140415563 0.0
  endloop
endfacet
facet normal 1.0 0.0 0.0
  outer loop
    vertex 76.08169399689486 9.512384140415563 7.999607999999999
    vertex 76.08169399689486 17.419233140415564 0.0
    vertex 76.08169399689486 17.419233140415564 7.999607999999999
  endloop
endfacet
facet normal -0.00027179398535992516 -0.9999999630640143 -0.0
  outer loop
    vertex 76.08169399689486 9.512384140415563 7.999607999999999
    vertex 11.799947464381866 9.529855533136855 0.0
    vertex 76.08169399689486 9.512384140415563 0.0
  endloop
endfacet
facet normal -0.00027179398535992516 -0.9999999630640143 -0.0
  outer loop
    vertex 11.799947464381866 9.529855533136855 0.0
    vertex 76.08169399689486 9.512384140415563 7.999607999999999
    vertex 11.799947464381866 9.529855533136855 7.999607999999999
  endloop
endfacet
facet normal -0.2376037721010071 -0.9713621608253912 -0.0
  outer loop
    vertex 11.799947464381866 9.529855533136855 7.999607999999999
    vertex 10.746979478688065 9.78742081145679 0.0
    vertex 11.799947464381866 9.529855533136855 0.0
  endloop
endfacet
facet normal -0.2376037721010071 -0.9713621608253912 -0.0
  outer loop
    vertex 10.746979478688065 9.78742081145679 0.0
    vertex 11.799947464381866 9.529855533136855 7.999607999999999
    vertex 10.746979478688065 9.78742081145679 7.999607999999999
  endloop
endfacet
facet normal -0.3842929090155862 -0.9232112218123968 -0.0
  outer loop
    vertex 10.746979478688065 9.78742081145679 7.999607999999999
    vertex 9.746207676154924 10.203998836257256 0.0
    vertex 10.746979478688065 9.78742081145679 0.0
  endloop
endfacet
facet normal -0.3842929090155862 -0.9232112218123968 -0.0
  outer loop
    vertex 9.746207676154924 10.203998836257256 0.0
    vertex 10.746979478688065 9.78742081145679 7.999607999999999
    vertex 9.746207676154924 10.203998836257256 7.999607999999999
  endloop
endfacet
facet normal -0.5218219572140902 -0.8530544208719958 -0.0
  outer loop
    vertex 9.746207676154924 10.203998836257256 7.999607999999999
    vertex 8.821486669450772 10.769659963834663 0.0
    vertex 9.746207676154924 10.203998836257256 0.0
  endloop
endfacet
facet normal -0.5218219572140902 -0.8530544208719958 -0.0
  outer loop
    vertex 8.821486669450772 10.769659963834663 0.0
    vertex 9.746207676154924 10.203998836257256 7.999607999999999
    vertex 8.821486669450772 10.769659963834663 7.999607999999999
  endloop
endfacet
facet normal -0.6469127446226073 -0.7625640306524072 -0.0
  outer loop
    vertex 8.821486669450772 10.769659963834663 7.999607999999999
    vertex 7.994858308061525 11.470920973473024 0.0
    vertex 8.821486669450772 10.769659963834663 0.0
  endloop
endfacet
facet normal -0.6469127446226073 -0.7625640306524072 -0.0
  outer loop
    vertex 7.994858308061525 11.470920973473024 0.0
    vertex 8.821486669450772 10.769659963834663 7.999607999999999
    vertex 7.994858308061525 11.470920973473024 7.999607999999999
  endloop
endfacet
facet normal -0.7565835802358077 -0.6538969996242275 -0.0
  outer loop
    vertex 7.286026284009363 12.291066456402854 7.999607999999999
    vertex 7.994858308061525 11.470920973473024 0.0
    vertex 7.994858308061525 11.470920973473024 7.999607999999999
  endloop
endfacet
facet normal -0.7565835802358077 -0.6538969996242275 -0.0
  outer loop
    vertex 7.994858308061525 11.470920973473024 0.0
    vertex 7.286026284009363 12.291066456402854 7.999607999999999
    vertex 7.286026284009363 12.291066456402854 0.0
  endloop
endfacet
facet normal -0.8482203263472289 -0.5296435385911931 -0.0
  outer loop
    vertex 6.711886470397296 13.210547247892043 7.999607999999999
    vertex 7.286026284009363 12.291066456402854 0.0
    vertex 7.286026284009363 12.291066456402854 7.999607999999999
  endloop
endfacet
facet normal -0.8482203263472289 -0.5296435385911931 -0.0
  outer loop
    vertex 7.286026284009363 12.291066456402854 0.0
    vertex 6.711886470397296 13.210547247892043 7.999607999999999
    vertex 6.711886470397296 13.210547247892043 0.0
  endloop
endfacet
facet normal -0.9196387096998301 -0.3927653798664437 -0.0
  outer loop
    vertex 6.286124187731469 14.207446405355459 7.999607999999999
    vertex 6.711886470397296 13.210547247892043 0.0
    vertex 6.711886470397296 13.210547247892043 7.999607999999999
  endloop
endfacet
facet normal -0.9196387096998301 -0.3927653798664437 -0.0
  outer loop
    vertex 6.711886470397296 13.210547247892043 0.0
    vertex 6.286124187731469 14.207446405355459 7.999607999999999
    vertex 6.286124187731469 14.207446405355459 0.0
  endloop
endfacet
facet normal -0.9691363862947482 -0.24652518078191651 -0.0
  outer loop
    vertex 6.018887997668063 15.258001625328442 7.999607999999999
    vertex 6.286124187731469 14.207446405355459 0.0
    vertex 6.286124187731469 14.207446405355459 7.999607999999999
  endloop
endfacet
facet normal -0.9691363862947482 -0.24652518078191651 -0.0
  outer loop
    vertex 6.286124187731469 14.207446405355459 0.0
    vertex 6.018887997668063 15.258001625328442 7.999607999999999
    vertex 6.018887997668063 15.258001625328442 0.0
  endloop
endfacet
facet normal -0.9955335188302469 -0.09440875428405222 -0.0
  outer loop
    vertex 5.981542996894869 15.651801970565455 7.999607999999999
    vertex 6.018887997668063 15.258001625328442 0.0
    vertex 6.018887997668063 15.258001625328442 7.999607999999999
  endloop
endfacet
facet normal -0.9955335188302469 -0.09440875428405222 -0.0
  outer loop
    vertex 6.018887997668063 15.258001625328442 0.0
    vertex 5.981542996894869 15.651801970565455 7.999607999999999
    vertex 5.981542996894869 15.651801970565455 0.0
  endloop
endfacet
facet normal -1.0 0.0 0.0
  outer loop
    vertex 5.981542996894869 30.08439714041556 7.999607999999999
    vertex 5.981542996894869 15.651801970565455 0.0
    vertex 5.981542996894869 15.651801970565455 7.999607999999999
  endloop
endfacet
facet normal -1.0 0.0 0.0
  outer loop
    vertex 5.981542996894869 15.651801970565455 0.0
    vertex 5.981542996894869 30.08439714041556 7.999607999999999
    vertex 5.981542996894869 30.08439714041556 0.0
  endloop
endfacet
facet normal -0.0 1.0 0.0
  outer loop
    vertex 5.981542996894869 30.08439714041556 7.999607999999999
    vertex 13.961430996894869 30.08439714041556 0.0
    vertex 5.981542996894869 30.08439714041556 0.0
  endloop
endfacet
facet normal -0.0 1.0 0.0
  outer loop
    vertex 13.961430996894869 30.08439714041556 0.0
    vertex 5.981542996894869 30.08439714041556 7.999607999999999
    vertex 13.961430996894869 30.08439714041556 7.999607999999999
  endloop
endfacet
endsolid Llave ventana rellano
