solid Molde Hamburger
facet normal 0.0 0.0 -1.0
  outer loop
    vertex 18.22384567997315 47.42194360869474 0.0
    vertex 17.138816514483942 32.163192122295385 0.0
    vertex 15.175134239204263 40.061703100628485 0.0
  endloop
endfacet
facet normal 0.0 0.0 -1.0
  outer loop
    vertex 17.138816514483942 32.163192122295385 0.0
    vertex 18.22384567997315 47.42194360869474 0.0
    vertex 18.076332035147917 39.28432949412243 0.0
  endloop
endfacet
facet normal 0.0 0.0 -1.0
  outer loop
    vertex 18.076332035147917 39.28432949412243 0.0
    vertex 18.22384567997315 47.42194360869474 0.0
    vertex 20.824988463724242 45.92017312229539 0.0
  endloop
endfacet
facet normal 0.0 0.0 -1.0
  outer loop
    vertex 20.824988463724242 45.92017312229539 0.0
    vertex 18.22384567997315 47.42194360869474 0.0
    vertex 23.07364521753736 53.742325419241965 0.0
  endloop
endfacet
facet normal 0.0 0.0 -1.0
  outer loop
    vertex 20.824988463724242 45.92017312229539 0.0
    vertex 23.07364521753736 53.742325419241965 0.0
    vertex 25.19746940697496 51.61850122980436 0.0
  endloop
endfacet
facet normal 0.0 0.0 -1.0
  outer loop
    vertex 25.19746940697496 51.61850122980436 0.0
    vertex 23.07364521753736 53.742325419241965 0.0
    vertex 29.3940270280846 58.592124956806174 0.0
  endloop
endfacet
facet normal 0.0 0.0 -1.0
  outer loop
    vertex 25.19746940697496 51.61850122980436 0.0
    vertex 29.3940270280846 58.592124956806174 0.0
    vertex 30.89579751448394 55.99098217305509 0.0
  endloop
endfacet
facet normal 0.0 0.0 -1.0
  outer loop
    vertex 30.89579751448394 55.99098217305509 0.0
    vertex 29.3940270280846 58.592124956806174 0.0
    vertex 36.75426753615084 61.640836397575065 0.0
  endloop
endfacet
facet normal 0.0 0.0 -1.0
  outer loop
    vertex 30.89579751448394 55.99098217305509 0.0
    vertex 36.75426753615084 61.640836397575065 0.0
    vertex 37.5316411426569 58.73963860163141 0.0
  endloop
endfacet
facet normal 0.0 0.0 -1.0
  outer loop
    vertex 37.5316411426569 58.73963860163141 0.0
    vertex 36.75426753615084 61.640836397575065 0.0
    vertex 44.65277851448394 62.68069509509408 0.0
  endloop
endfacet
facet normal 0.0 0.0 -1.0
  outer loop
    vertex 37.5316411426569 58.73963860163141 0.0
    vertex 44.65277851448394 62.68069509509408 0.0
    vertex 44.65277851448394 59.67715412229538 0.0
  endloop
endfacet
facet normal 0.0 0.0 -1.0
  outer loop
    vertex 44.65277851448394 59.67715412229538 0.0
    vertex 44.65277851448394 62.68069509509408 0.0
    vertex 52.55128949281705 61.640836397575065 0.0
  endloop
endfacet
facet normal 0.0 0.0 -1.0
  outer loop
    vertex 44.65277851448394 59.67715412229538 0.0
    vertex 52.55128949281705 61.640836397575065 0.0
    vertex 51.77391588631098 58.73963860163141 0.0
  endloop
endfacet
facet normal 0.0 0.0 -1.0
  outer loop
    vertex 51.77391588631098 58.73963860163141 0.0
    vertex 52.55128949281705 61.640836397575065 0.0
    vertex 58.409759514483945 55.99098217305509 0.0
  endloop
endfacet
facet normal 0.0 0.0 -1.0
  outer loop
    vertex 58.409759514483945 55.99098217305509 0.0
    vertex 52.55128949281705 61.640836397575065 0.0
    vertex 59.91153000088329 58.592124956806174 0.0
  endloop
endfacet
facet normal 0.0 0.0 -1.0
  outer loop
    vertex 58.409759514483945 55.99098217305509 0.0
    vertex 59.91153000088329 58.592124956806174 0.0
    vertex 64.10808762199292 51.61850122980436 0.0
  endloop
endfacet
facet normal 0.0 0.0 -1.0
  outer loop
    vertex 64.10808762199292 51.61850122980436 0.0
    vertex 59.91153000088329 58.592124956806174 0.0
    vertex 66.23191181143052 53.742325419241965 0.0
  endloop
endfacet
facet normal 0.0 0.0 -1.0
  outer loop
    vertex 64.10808762199292 51.61850122980436 0.0
    vertex 66.23191181143052 53.742325419241965 0.0
    vertex 68.48056856524364 45.92017312229538 0.0
  endloop
endfacet
facet normal 0.0 0.0 -1.0
  outer loop
    vertex 68.48056856524364 45.92017312229538 0.0
    vertex 66.23191181143052 53.742325419241965 0.0
    vertex 71.08171134899474 47.421943608694725 0.0
  endloop
endfacet
facet normal 0.0 0.0 -1.0
  outer loop
    vertex 68.48056856524364 45.92017312229538 0.0
    vertex 71.08171134899474 47.421943608694725 0.0
    vertex 71.22922499381997 39.284329494122424 0.0
  endloop
endfacet
facet normal 0.0 0.0 -1.0
  outer loop
    vertex 71.22922499381997 39.284329494122424 0.0
    vertex 71.08171134899474 47.421943608694725 0.0
    vertex 74.13042278976361 40.06170310062848 0.0
  endloop
endfacet
facet normal 0.0 0.0 -1.0
  outer loop
    vertex 71.22922499381997 39.284329494122424 0.0
    vertex 74.13042278976361 40.06170310062848 0.0
    vertex 72.16674051448393 32.163192122295385 0.0
  endloop
endfacet
facet normal 0.0 0.0 -1.0
  outer loop
    vertex 72.16674051448393 32.163192122295385 0.0
    vertex 74.13042278976361 40.06170310062848 0.0
    vertex 74.1304227897636 24.26468114396226 0.0
  endloop
endfacet
facet normal 0.0 0.0 -1.0
  outer loop
    vertex 74.1304227897636 24.26468114396226 0.0
    vertex 74.13042278976361 40.06170310062848 0.0
    vertex 75.17028148728264 32.163192122295385 0.0
  endloop
endfacet
facet normal 0.0 0.0 -1.0
  outer loop
    vertex 15.175134239204263 40.061703100628485 0.0
    vertex 15.175134239204258 24.264681143962296 0.0
    vertex 14.135275541685244 32.163192122295385 0.0
  endloop
endfacet
facet normal 0.0 0.0 -1.0
  outer loop
    vertex 15.175134239204258 24.264681143962296 0.0
    vertex 15.175134239204263 40.061703100628485 0.0
    vertex 18.223845679973138 16.904440635896044 0.0
  endloop
endfacet
facet normal 0.0 0.0 -1.0
  outer loop
    vertex 18.223845679973138 16.904440635896044 0.0
    vertex 15.175134239204263 40.061703100628485 0.0
    vertex 17.138816514483942 32.163192122295385 0.0
  endloop
endfacet
facet normal 0.0 0.0 -1.0
  outer loop
    vertex 18.223845679973138 16.904440635896044 0.0
    vertex 17.138816514483942 32.163192122295385 0.0
    vertex 18.07633203514791 25.04205475046835 0.0
  endloop
endfacet
facet normal 0.0 0.0 -1.0
  outer loop
    vertex 18.223845679973138 16.904440635896044 0.0
    vertex 18.07633203514791 25.04205475046835 0.0
    vertex 20.824988463724235 18.40621112229539 0.0
  endloop
endfacet
facet normal 0.0 0.0 -1.0
  outer loop
    vertex 18.223845679973138 16.904440635896044 0.0
    vertex 20.824988463724235 18.40621112229539 0.0
    vertex 23.073645217537347 10.584058825348812 0.0
  endloop
endfacet
facet normal 0.0 0.0 -1.0
  outer loop
    vertex 23.073645217537347 10.584058825348812 0.0
    vertex 20.824988463724235 18.40621112229539 0.0
    vertex 25.197469406974946 12.70788301478641 0.0
  endloop
endfacet
facet normal 0.0 0.0 -1.0
  outer loop
    vertex 23.073645217537347 10.584058825348812 0.0
    vertex 25.197469406974946 12.70788301478641 0.0
    vertex 29.39402702808458 5.7342592877845915 0.0
  endloop
endfacet
facet normal 0.0 0.0 -1.0
  outer loop
    vertex 29.39402702808458 5.7342592877845915 0.0
    vertex 25.197469406974946 12.70788301478641 0.0
    vertex 30.89579751448393 8.33540207153569 0.0
  endloop
endfacet
facet normal 0.0 0.0 -1.0
  outer loop
    vertex 29.39402702808458 5.7342592877845915 0.0
    vertex 30.89579751448393 8.33540207153569 0.0
    vertex 36.75426753615082 2.6855478470157115 0.0
  endloop
endfacet
facet normal 0.0 0.0 -1.0
  outer loop
    vertex 36.75426753615082 2.6855478470157115 0.0
    vertex 30.89579751448393 8.33540207153569 0.0
    vertex 37.53164114265687 5.586745642959364 0.0
  endloop
endfacet
facet normal 0.0 0.0 -1.0
  outer loop
    vertex 36.75426753615082 2.6855478470157115 0.0
    vertex 37.53164114265687 5.586745642959364 0.0
    vertex 44.652778514483934 1.645689149496687 0.0
  endloop
endfacet
facet normal 0.0 0.0 -1.0
  outer loop
    vertex 44.652778514483934 1.645689149496687 0.0
    vertex 37.53164114265687 5.586745642959364 0.0
    vertex 44.652778514483934 4.649230122295382 0.0
  endloop
endfacet
facet normal 0.0 0.0 -1.0
  outer loop
    vertex 44.652778514483934 1.645689149496687 0.0
    vertex 44.652778514483934 4.649230122295382 0.0
    vertex 51.773915886310974 5.586745642959353 0.0
  endloop
endfacet
facet normal 0.0 0.0 -1.0
  outer loop
    vertex 44.652778514483934 1.645689149496687 0.0
    vertex 51.773915886310974 5.586745642959353 0.0
    vertex 52.55128949281703 2.6855478470157004 0.0
  endloop
endfacet
facet normal 0.0 0.0 -1.0
  outer loop
    vertex 52.55128949281703 2.6855478470157004 0.0
    vertex 51.773915886310974 5.586745642959353 0.0
    vertex 58.40975951448392 8.33540207153567 0.0
  endloop
endfacet
facet normal 0.0 0.0 -1.0
  outer loop
    vertex 52.55128949281703 2.6855478470157004 0.0
    vertex 58.40975951448392 8.33540207153567 0.0
    vertex 59.91153000088327 5.734259287784575 0.0
  endloop
endfacet
facet normal 0.0 0.0 -1.0
  outer loop
    vertex 59.91153000088327 5.734259287784575 0.0
    vertex 58.40975951448392 8.33540207153567 0.0
    vertex 64.10808762199291 12.707883014786393 0.0
  endloop
endfacet
facet normal 0.0 0.0 -1.0
  outer loop
    vertex 59.91153000088327 5.734259287784575 0.0
    vertex 64.10808762199291 12.707883014786393 0.0
    vertex 66.2319118114305 10.584058825348796 0.0
  endloop
endfacet
facet normal 0.0 0.0 -1.0
  outer loop
    vertex 66.2319118114305 10.584058825348796 0.0
    vertex 64.10808762199291 12.707883014786393 0.0
    vertex 68.48056856524363 18.40621112229537 0.0
  endloop
endfacet
facet normal 0.0 0.0 -1.0
  outer loop
    vertex 66.2319118114305 10.584058825348796 0.0
    vertex 68.48056856524363 18.40621112229537 0.0
    vertex 71.08171134899473 16.90444063589602 0.0
  endloop
endfacet
facet normal 0.0 0.0 -1.0
  outer loop
    vertex 71.08171134899473 16.90444063589602 0.0
    vertex 68.48056856524363 18.40621112229537 0.0
    vertex 71.22922499381995 25.042054750468317 0.0
  endloop
endfacet
facet normal 0.0 0.0 -1.0
  outer loop
    vertex 71.08171134899473 16.90444063589602 0.0
    vertex 71.22922499381995 25.042054750468317 0.0
    vertex 74.1304227897636 24.26468114396226 0.0
  endloop
endfacet
facet normal 0.0 0.0 -1.0
  outer loop
    vertex 74.1304227897636 24.26468114396226 0.0
    vertex 71.22922499381995 25.042054750468317 0.0
    vertex 72.16674051448393 32.163192122295385 0.0
  endloop
endfacet
facet normal 0.0 0.0 1.0
  outer loop
    vertex 15.175134239204258 24.264681143962296 30.057955
    vertex 15.175134239204263 40.061703100628485 30.057955
    vertex 14.135275541685244 32.163192122295385 30.057955
  endloop
endfacet
facet normal 0.0 0.0 1.0
  outer loop
    vertex 15.175134239204263 40.061703100628485 30.057955
    vertex 15.175134239204258 24.264681143962296 30.057955
    vertex 18.223845679973138 16.904440635896044 30.057955
  endloop
endfacet
facet normal 0.0 0.0 1.0
  outer loop
    vertex 15.175134239204263 40.061703100628485 30.057955
    vertex 18.223845679973138 16.904440635896044 30.057955
    vertex 17.138816514483942 32.163192122295385 30.057955
  endloop
endfacet
facet normal 0.0 0.0 1.0
  outer loop
    vertex 17.138816514483942 32.163192122295385 30.057955
    vertex 18.223845679973138 16.904440635896044 30.057955
    vertex 18.07633203514791 25.04205475046835 30.057955
  endloop
endfacet
facet normal 0.0 0.0 1.0
  outer loop
    vertex 18.07633203514791 25.04205475046835 30.057955
    vertex 18.223845679973138 16.904440635896044 30.057955
    vertex 20.824988463724235 18.40621112229539 30.057955
  endloop
endfacet
facet normal 0.0 0.0 1.0
  outer loop
    vertex 20.824988463724235 18.40621112229539 30.057955
    vertex 18.223845679973138 16.904440635896044 30.057955
    vertex 23.073645217537347 10.584058825348812 30.057955
  endloop
endfacet
facet normal 0.0 0.0 1.0
  outer loop
    vertex 20.824988463724235 18.40621112229539 30.057955
    vertex 23.073645217537347 10.584058825348812 30.057955
    vertex 25.197469406974946 12.70788301478641 30.057955
  endloop
endfacet
facet normal 0.0 0.0 1.0
  outer loop
    vertex 25.197469406974946 12.70788301478641 30.057955
    vertex 23.073645217537347 10.584058825348812 30.057955
    vertex 29.39402702808458 5.7342592877845915 30.057955
  endloop
endfacet
facet normal 0.0 0.0 1.0
  outer loop
    vertex 25.197469406974946 12.70788301478641 30.057955
    vertex 29.39402702808458 5.7342592877845915 30.057955
    vertex 30.89579751448393 8.33540207153569 30.057955
  endloop
endfacet
facet normal 0.0 0.0 1.0
  outer loop
    vertex 30.89579751448393 8.33540207153569 30.057955
    vertex 29.39402702808458 5.7342592877845915 30.057955
    vertex 36.75426753615082 2.6855478470157115 30.057955
  endloop
endfacet
facet normal 0.0 0.0 1.0
  outer loop
    vertex 30.89579751448393 8.33540207153569 30.057955
    vertex 36.75426753615082 2.6855478470157115 30.057955
    vertex 37.53164114265687 5.586745642959364 30.057955
  endloop
endfacet
facet normal 0.0 0.0 1.0
  outer loop
    vertex 37.53164114265687 5.586745642959364 30.057955
    vertex 36.75426753615082 2.6855478470157115 30.057955
    vertex 44.652778514483934 1.645689149496687 30.057955
  endloop
endfacet
facet normal 0.0 0.0 1.0
  outer loop
    vertex 37.53164114265687 5.586745642959364 30.057955
    vertex 44.652778514483934 1.645689149496687 30.057955
    vertex 44.652778514483934 4.649230122295382 30.057955
  endloop
endfacet
facet normal 0.0 0.0 1.0
  outer loop
    vertex 44.652778514483934 4.649230122295382 30.057955
    vertex 44.652778514483934 1.645689149496687 30.057955
    vertex 52.55128949281703 2.6855478470157004 30.057955
  endloop
endfacet
facet normal 0.0 0.0 1.0
  outer loop
    vertex 44.652778514483934 4.649230122295382 30.057955
    vertex 52.55128949281703 2.6855478470157004 30.057955
    vertex 51.773915886310974 5.586745642959353 30.057955
  endloop
endfacet
facet normal 0.0 0.0 1.0
  outer loop
    vertex 51.773915886310974 5.586745642959353 30.057955
    vertex 52.55128949281703 2.6855478470157004 30.057955
    vertex 58.40975951448392 8.33540207153567 30.057955
  endloop
endfacet
facet normal 0.0 0.0 1.0
  outer loop
    vertex 58.40975951448392 8.33540207153567 30.057955
    vertex 52.55128949281703 2.6855478470157004 30.057955
    vertex 59.91153000088327 5.734259287784575 30.057955
  endloop
endfacet
facet normal 0.0 0.0 1.0
  outer loop
    vertex 58.40975951448392 8.33540207153567 30.057955
    vertex 59.91153000088327 5.734259287784575 30.057955
    vertex 64.10808762199291 12.707883014786393 30.057955
  endloop
endfacet
facet normal 0.0 0.0 1.0
  outer loop
    vertex 64.10808762199291 12.707883014786393 30.057955
    vertex 59.91153000088327 5.734259287784575 30.057955
    vertex 66.2319118114305 10.584058825348796 30.057955
  endloop
endfacet
facet normal 0.0 0.0 1.0
  outer loop
    vertex 64.10808762199291 12.707883014786393 30.057955
    vertex 66.2319118114305 10.584058825348796 30.057955
    vertex 68.48056856524363 18.40621112229537 30.057955
  endloop
endfacet
facet normal 0.0 0.0 1.0
  outer loop
    vertex 68.48056856524363 18.40621112229537 30.057955
    vertex 66.2319118114305 10.584058825348796 30.057955
    vertex 71.08171134899473 16.90444063589602 30.057955
  endloop
endfacet
facet normal 0.0 0.0 1.0
  outer loop
    vertex 68.48056856524363 18.40621112229537 30.057955
    vertex 71.08171134899473 16.90444063589602 30.057955
    vertex 71.22922499381995 25.042054750468317 30.057955
  endloop
endfacet
facet normal 0.0 0.0 1.0
  outer loop
    vertex 71.22922499381995 25.042054750468317 30.057955
    vertex 71.08171134899473 16.90444063589602 30.057955
    vertex 74.1304227897636 24.26468114396226 30.057955
  endloop
endfacet
facet normal 0.0 0.0 1.0
  outer loop
    vertex 71.22922499381995 25.042054750468317 30.057955
    vertex 74.1304227897636 24.26468114396226 30.057955
    vertex 72.16674051448393 32.163192122295385 30.057955
  endloop
endfacet
facet normal 0.0 0.0 1.0
  outer loop
    vertex 17.138816514483942 32.163192122295385 30.057955
    vertex 18.22384567997315 47.42194360869474 30.057955
    vertex 15.175134239204263 40.061703100628485 30.057955
  endloop
endfacet
facet normal 0.0 0.0 1.0
  outer loop
    vertex 18.22384567997315 47.42194360869474 30.057955
    vertex 17.138816514483942 32.163192122295385 30.057955
    vertex 18.076332035147917 39.28432949412243 30.057955
  endloop
endfacet
facet normal 0.0 0.0 1.0
  outer loop
    vertex 18.22384567997315 47.42194360869474 30.057955
    vertex 18.076332035147917 39.28432949412243 30.057955
    vertex 20.824988463724242 45.92017312229539 30.057955
  endloop
endfacet
facet normal 0.0 0.0 1.0
  outer loop
    vertex 18.22384567997315 47.42194360869474 30.057955
    vertex 20.824988463724242 45.92017312229539 30.057955
    vertex 23.07364521753736 53.742325419241965 30.057955
  endloop
endfacet
facet normal 0.0 0.0 1.0
  outer loop
    vertex 23.07364521753736 53.742325419241965 30.057955
    vertex 20.824988463724242 45.92017312229539 30.057955
    vertex 25.19746940697496 51.61850122980436 30.057955
  endloop
endfacet
facet normal 0.0 0.0 1.0
  outer loop
    vertex 23.07364521753736 53.742325419241965 30.057955
    vertex 25.19746940697496 51.61850122980436 30.057955
    vertex 29.3940270280846 58.592124956806174 30.057955
  endloop
endfacet
facet normal 0.0 0.0 1.0
  outer loop
    vertex 29.3940270280846 58.592124956806174 30.057955
    vertex 25.19746940697496 51.61850122980436 30.057955
    vertex 30.89579751448394 55.99098217305509 30.057955
  endloop
endfacet
facet normal 0.0 0.0 1.0
  outer loop
    vertex 29.3940270280846 58.592124956806174 30.057955
    vertex 30.89579751448394 55.99098217305509 30.057955
    vertex 36.75426753615084 61.640836397575065 30.057955
  endloop
endfacet
facet normal 0.0 0.0 1.0
  outer loop
    vertex 36.75426753615084 61.640836397575065 30.057955
    vertex 30.89579751448394 55.99098217305509 30.057955
    vertex 37.5316411426569 58.73963860163141 30.057955
  endloop
endfacet
facet normal 0.0 0.0 1.0
  outer loop
    vertex 36.75426753615084 61.640836397575065 30.057955
    vertex 37.5316411426569 58.73963860163141 30.057955
    vertex 44.65277851448394 62.68069509509408 30.057955
  endloop
endfacet
facet normal 0.0 0.0 1.0
  outer loop
    vertex 44.65277851448394 62.68069509509408 30.057955
    vertex 37.5316411426569 58.73963860163141 30.057955
    vertex 44.65277851448394 59.67715412229538 30.057955
  endloop
endfacet
facet normal 0.0 0.0 1.0
  outer loop
    vertex 44.65277851448394 62.68069509509408 30.057955
    vertex 44.65277851448394 59.67715412229538 30.057955
    vertex 51.77391588631098 58.73963860163141 30.057955
  endloop
endfacet
facet normal 0.0 0.0 1.0
  outer loop
    vertex 44.65277851448394 62.68069509509408 30.057955
    vertex 51.77391588631098 58.73963860163141 30.057955
    vertex 52.55128949281705 61.640836397575065 30.057955
  endloop
endfacet
facet normal 0.0 0.0 1.0
  outer loop
    vertex 52.55128949281705 61.640836397575065 30.057955
    vertex 51.77391588631098 58.73963860163141 30.057955
    vertex 58.409759514483945 55.99098217305509 30.057955
  endloop
endfacet
facet normal 0.0 0.0 1.0
  outer loop
    vertex 52.55128949281705 61.640836397575065 30.057955
    vertex 58.409759514483945 55.99098217305509 30.057955
    vertex 59.91153000088329 58.592124956806174 30.057955
  endloop
endfacet
facet normal 0.0 0.0 1.0
  outer loop
    vertex 59.91153000088329 58.592124956806174 30.057955
    vertex 58.409759514483945 55.99098217305509 30.057955
    vertex 64.10808762199292 51.61850122980436 30.057955
  endloop
endfacet
facet normal 0.0 0.0 1.0
  outer loop
    vertex 59.91153000088329 58.592124956806174 30.057955
    vertex 64.10808762199292 51.61850122980436 30.057955
    vertex 66.23191181143052 53.742325419241965 30.057955
  endloop
endfacet
facet normal 0.0 0.0 1.0
  outer loop
    vertex 66.23191181143052 53.742325419241965 30.057955
    vertex 64.10808762199292 51.61850122980436 30.057955
    vertex 68.48056856524364 45.92017312229538 30.057955
  endloop
endfacet
facet normal 0.0 0.0 1.0
  outer loop
    vertex 66.23191181143052 53.742325419241965 30.057955
    vertex 68.48056856524364 45.92017312229538 30.057955
    vertex 71.08171134899474 47.421943608694725 30.057955
  endloop
endfacet
facet normal 0.0 0.0 1.0
  outer loop
    vertex 71.08171134899474 47.421943608694725 30.057955
    vertex 68.48056856524364 45.92017312229538 30.057955
    vertex 71.22922499381997 39.284329494122424 30.057955
  endloop
endfacet
facet normal 0.0 0.0 1.0
  outer loop
    vertex 71.08171134899474 47.421943608694725 30.057955
    vertex 71.22922499381997 39.284329494122424 30.057955
    vertex 74.13042278976361 40.06170310062848 30.057955
  endloop
endfacet
facet normal 0.0 0.0 1.0
  outer loop
    vertex 74.13042278976361 40.06170310062848 30.057955
    vertex 71.22922499381997 39.284329494122424 30.057955
    vertex 72.16674051448393 32.163192122295385 30.057955
  endloop
endfacet
facet normal 0.0 0.0 1.0
  outer loop
    vertex 74.13042278976361 40.06170310062848 30.057955
    vertex 72.16674051448393 32.163192122295385 30.057955
    vertex 74.1304227897636 24.26468114396226 30.057955
  endloop
endfacet
facet normal 0.0 0.0 1.0
  outer loop
    vertex 74.13042278976361 40.06170310062848 30.057955
    vertex 74.1304227897636 24.26468114396226 30.057955
    vertex 75.17028148728264 32.163192122295385 30.057955
  endloop
endfacet
facet normal 0.9914448613738103 -0.13052619222005274 0.0
  outer loop
    vertex 75.17028148728264 32.163192122295385 0.0
    vertex 74.1304227897636 24.26468114396226 30.057955
    vertex 74.1304227897636 24.26468114396226 0.0
  endloop
endfacet
facet normal 0.9914448613738103 -0.13052619222005274 0.0
  outer loop
    vertex 74.1304227897636 24.26468114396226 30.057955
    vertex 75.17028148728264 32.163192122295385 0.0
    vertex 75.17028148728264 32.163192122295385 30.057955
  endloop
endfacet
facet normal 0.9238795325112868 -0.3826834323650895 0.0
  outer loop
    vertex 74.1304227897636 24.26468114396226 0.0
    vertex 71.08171134899473 16.90444063589602 30.057955
    vertex 71.08171134899473 16.90444063589602 0.0
  endloop
endfacet
facet normal 0.9238795325112868 -0.3826834323650895 0.0
  outer loop
    vertex 71.08171134899473 16.90444063589602 30.057955
    vertex 74.1304227897636 24.26468114396226 0.0
    vertex 74.1304227897636 24.26468114396226 30.057955
  endloop
endfacet
facet normal 0.7933533402912349 -0.6087614290087212 0.0
  outer loop
    vertex 71.08171134899473 16.90444063589602 0.0
    vertex 66.2319118114305 10.584058825348796 30.057955
    vertex 66.2319118114305 10.584058825348796 0.0
  endloop
endfacet
facet normal 0.7933533402912349 -0.6087614290087212 0.0
  outer loop
    vertex 66.2319118114305 10.584058825348796 30.057955
    vertex 71.08171134899473 16.90444063589602 0.0
    vertex 71.08171134899473 16.90444063589602 30.057955
  endloop
endfacet
facet normal 0.6087614290087202 -0.7933533402912355 0.0
  outer loop
    vertex 66.2319118114305 10.584058825348796 30.057955
    vertex 59.91153000088327 5.734259287784575 0.0
    vertex 66.2319118114305 10.584058825348796 0.0
  endloop
endfacet
facet normal 0.6087614290087202 -0.7933533402912355 0.0
  outer loop
    vertex 59.91153000088327 5.734259287784575 0.0
    vertex 66.2319118114305 10.584058825348796 30.057955
    vertex 59.91153000088327 5.734259287784575 30.057955
  endloop
endfacet
facet normal 0.38268343236508945 -0.923879532511287 0.0
  outer loop
    vertex 59.91153000088327 5.734259287784575 30.057955
    vertex 52.55128949281703 2.6855478470157004 0.0
    vertex 59.91153000088327 5.734259287784575 0.0
  endloop
endfacet
facet normal 0.38268343236508945 -0.923879532511287 0.0
  outer loop
    vertex 52.55128949281703 2.6855478470157004 0.0
    vertex 59.91153000088327 5.734259287784575 30.057955
    vertex 52.55128949281703 2.6855478470157004 30.057955
  endloop
endfacet
facet normal 0.13052619222005118 -0.9914448613738106 0.0
  outer loop
    vertex 52.55128949281703 2.6855478470157004 30.057955
    vertex 44.652778514483934 1.645689149496687 0.0
    vertex 52.55128949281703 2.6855478470157004 0.0
  endloop
endfacet
facet normal 0.13052619222005118 -0.9914448613738106 0.0
  outer loop
    vertex 44.652778514483934 1.645689149496687 0.0
    vertex 52.55128949281703 2.6855478470157004 30.057955
    vertex 44.652778514483934 1.645689149496687 30.057955
  endloop
endfacet
facet normal -0.1305261922200522 -0.9914448613738105 -0.0
  outer loop
    vertex 44.652778514483934 1.645689149496687 30.057955
    vertex 36.75426753615082 2.6855478470157115 0.0
    vertex 44.652778514483934 1.645689149496687 0.0
  endloop
endfacet
facet normal -0.1305261922200522 -0.9914448613738105 -0.0
  outer loop
    vertex 36.75426753615082 2.6855478470157115 0.0
    vertex 44.652778514483934 1.645689149496687 30.057955
    vertex 36.75426753615082 2.6855478470157115 30.057955
  endloop
endfacet
facet normal -0.38268343236509006 -0.9238795325112868 -0.0
  outer loop
    vertex 36.75426753615082 2.6855478470157115 30.057955
    vertex 29.39402702808458 5.7342592877845915 0.0
    vertex 36.75426753615082 2.6855478470157115 0.0
  endloop
endfacet
facet normal -0.38268343236509006 -0.9238795325112868 -0.0
  outer loop
    vertex 29.39402702808458 5.7342592877845915 0.0
    vertex 36.75426753615082 2.6855478470157115 30.057955
    vertex 29.39402702808458 5.7342592877845915 30.057955
  endloop
endfacet
facet normal -0.6087614290087213 -0.7933533402912348 -0.0
  outer loop
    vertex 29.39402702808458 5.7342592877845915 30.057955
    vertex 23.073645217537347 10.584058825348812 0.0
    vertex 29.39402702808458 5.7342592877845915 0.0
  endloop
endfacet
facet normal -0.6087614290087213 -0.7933533402912348 -0.0
  outer loop
    vertex 23.073645217537347 10.584058825348812 0.0
    vertex 29.39402702808458 5.7342592877845915 30.057955
    vertex 23.073645217537347 10.584058825348812 30.057955
  endloop
endfacet
facet normal -0.7933533402912354 -0.6087614290087204 -0.0
  outer loop
    vertex 18.223845679973138 16.904440635896044 30.057955
    vertex 23.073645217537347 10.584058825348812 0.0
    vertex 23.073645217537347 10.584058825348812 30.057955
  endloop
endfacet
facet normal -0.7933533402912354 -0.6087614290087204 -0.0
  outer loop
    vertex 23.073645217537347 10.584058825348812 0.0
    vertex 18.223845679973138 16.904440635896044 30.057955
    vertex 18.223845679973138 16.904440635896044 0.0
  endloop
endfacet
facet normal -0.9238795325112868 -0.3826834323650895 -0.0
  outer loop
    vertex 15.175134239204258 24.264681143962296 30.057955
    vertex 18.223845679973138 16.904440635896044 0.0
    vertex 18.223845679973138 16.904440635896044 30.057955
  endloop
endfacet
facet normal -0.9238795325112868 -0.3826834323650895 -0.0
  outer loop
    vertex 18.223845679973138 16.904440635896044 0.0
    vertex 15.175134239204258 24.264681143962296 30.057955
    vertex 15.175134239204258 24.264681143962296 0.0
  endloop
endfacet
facet normal -0.9914448613738106 -0.13052619222005118 -0.0
  outer loop
    vertex 14.135275541685244 32.163192122295385 30.057955
    vertex 15.175134239204258 24.264681143962296 0.0
    vertex 15.175134239204258 24.264681143962296 30.057955
  endloop
endfacet
facet normal -0.9914448613738106 -0.13052619222005118 -0.0
  outer loop
    vertex 15.175134239204258 24.264681143962296 0.0
    vertex 14.135275541685244 32.163192122295385 30.057955
    vertex 14.135275541685244 32.163192122295385 0.0
  endloop
endfacet
facet normal -0.9914448613738104 0.13052619222005177 0.0
  outer loop
    vertex 15.175134239204263 40.061703100628485 30.057955
    vertex 14.135275541685244 32.163192122295385 0.0
    vertex 14.135275541685244 32.163192122295385 30.057955
  endloop
endfacet
facet normal -0.9914448613738104 0.13052619222005177 0.0
  outer loop
    vertex 14.135275541685244 32.163192122295385 0.0
    vertex 15.175134239204263 40.061703100628485 30.057955
    vertex 15.175134239204263 40.061703100628485 0.0
  endloop
endfacet
facet normal -0.9238795325112866 0.3826834323650901 0.0
  outer loop
    vertex 18.22384567997315 47.42194360869474 30.057955
    vertex 15.175134239204263 40.061703100628485 0.0
    vertex 15.175134239204263 40.061703100628485 30.057955
  endloop
endfacet
facet normal -0.9238795325112866 0.3826834323650901 0.0
  outer loop
    vertex 15.175134239204263 40.061703100628485 0.0
    vertex 18.22384567997315 47.42194360869474 30.057955
    vertex 18.22384567997315 47.42194360869474 0.0
  endloop
endfacet
facet normal -0.7933533402912349 0.608761429008721 0.0
  outer loop
    vertex 23.07364521753736 53.742325419241965 30.057955
    vertex 18.22384567997315 47.42194360869474 0.0
    vertex 18.22384567997315 47.42194360869474 30.057955
  endloop
endfacet
facet normal -0.7933533402912349 0.608761429008721 0.0
  outer loop
    vertex 18.22384567997315 47.42194360869474 0.0
    vertex 23.07364521753736 53.742325419241965 30.057955
    vertex 23.07364521753736 53.742325419241965 0.0
  endloop
endfacet
facet normal -0.6087614290087203 0.7933533402912354 0.0
  outer loop
    vertex 23.07364521753736 53.742325419241965 30.057955
    vertex 29.3940270280846 58.592124956806174 0.0
    vertex 23.07364521753736 53.742325419241965 0.0
  endloop
endfacet
facet normal -0.6087614290087203 0.7933533402912354 0.0
  outer loop
    vertex 29.3940270280846 58.592124956806174 0.0
    vertex 23.07364521753736 53.742325419241965 30.057955
    vertex 29.3940270280846 58.592124956806174 30.057955
  endloop
endfacet
facet normal -0.3826834323650906 0.9238795325112864 0.0
  outer loop
    vertex 29.3940270280846 58.592124956806174 30.057955
    vertex 36.75426753615084 61.640836397575065 0.0
    vertex 29.3940270280846 58.592124956806174 0.0
  endloop
endfacet
facet normal -0.3826834323650906 0.9238795325112864 0.0
  outer loop
    vertex 36.75426753615084 61.640836397575065 0.0
    vertex 29.3940270280846 58.592124956806174 30.057955
    vertex 36.75426753615084 61.640836397575065 30.057955
  endloop
endfacet
facet normal -0.13052619222005177 0.9914448613738104 0.0
  outer loop
    vertex 36.75426753615084 61.640836397575065 30.057955
    vertex 44.65277851448394 62.68069509509408 0.0
    vertex 36.75426753615084 61.640836397575065 0.0
  endloop
endfacet
facet normal -0.13052619222005177 0.9914448613738104 0.0
  outer loop
    vertex 44.65277851448394 62.68069509509408 0.0
    vertex 36.75426753615084 61.640836397575065 30.057955
    vertex 44.65277851448394 62.68069509509408 30.057955
  endloop
endfacet
facet normal 0.13052619222005157 0.9914448613738104 0.0
  outer loop
    vertex 44.65277851448394 62.68069509509408 30.057955
    vertex 52.55128949281705 61.640836397575065 0.0
    vertex 44.65277851448394 62.68069509509408 0.0
  endloop
endfacet
facet normal 0.13052619222005157 0.9914448613738104 0.0
  outer loop
    vertex 52.55128949281705 61.640836397575065 0.0
    vertex 44.65277851448394 62.68069509509408 30.057955
    vertex 52.55128949281705 61.640836397575065 30.057955
  endloop
endfacet
facet normal 0.3826834323650906 0.9238795325112864 0.0
  outer loop
    vertex 52.55128949281705 61.640836397575065 30.057955
    vertex 59.91153000088329 58.592124956806174 0.0
    vertex 52.55128949281705 61.640836397575065 0.0
  endloop
endfacet
facet normal 0.3826834323650906 0.9238795325112864 0.0
  outer loop
    vertex 59.91153000088329 58.592124956806174 0.0
    vertex 52.55128949281705 61.640836397575065 30.057955
    vertex 59.91153000088329 58.592124956806174 30.057955
  endloop
endfacet
facet normal 0.6087614290087205 0.7933533402912354 0.0
  outer loop
    vertex 59.91153000088329 58.592124956806174 30.057955
    vertex 66.23191181143052 53.742325419241965 0.0
    vertex 59.91153000088329 58.592124956806174 0.0
  endloop
endfacet
facet normal 0.6087614290087205 0.7933533402912354 0.0
  outer loop
    vertex 66.23191181143052 53.742325419241965 0.0
    vertex 59.91153000088329 58.592124956806174 30.057955
    vertex 66.23191181143052 53.742325419241965 30.057955
  endloop
endfacet
facet normal 0.7933533402912354 0.6087614290087205 0.0
  outer loop
    vertex 66.23191181143052 53.742325419241965 0.0
    vertex 71.08171134899474 47.421943608694725 30.057955
    vertex 71.08171134899474 47.421943608694725 0.0
  endloop
endfacet
facet normal 0.7933533402912354 0.6087614290087205 0.0
  outer loop
    vertex 71.08171134899474 47.421943608694725 30.057955
    vertex 66.23191181143052 53.742325419241965 0.0
    vertex 66.23191181143052 53.742325419241965 30.057955
  endloop
endfacet
facet normal 0.9238795325112871 0.38268343236508917 0.0
  outer loop
    vertex 71.08171134899474 47.421943608694725 0.0
    vertex 74.13042278976361 40.06170310062848 30.057955
    vertex 74.13042278976361 40.06170310062848 0.0
  endloop
endfacet
facet normal 0.9238795325112871 0.38268343236508917 0.0
  outer loop
    vertex 74.13042278976361 40.06170310062848 30.057955
    vertex 71.08171134899474 47.421943608694725 0.0
    vertex 71.08171134899474 47.421943608694725 30.057955
  endloop
endfacet
facet normal 0.9914448613738104 0.13052619222005177 0.0
  outer loop
    vertex 74.13042278976361 40.06170310062848 0.0
    vertex 75.17028148728264 32.163192122295385 30.057955
    vertex 75.17028148728264 32.163192122295385 0.0
  endloop
endfacet
facet normal 0.9914448613738104 0.13052619222005177 0.0
  outer loop
    vertex 75.17028148728264 32.163192122295385 30.057955
    vertex 74.13042278976361 40.06170310062848 0.0
    vertex 74.13042278976361 40.06170310062848 30.057955
  endloop
endfacet
facet normal -0.9914448613738104 0.130526192220053 0.0
  outer loop
    vertex 72.16674051448393 32.163192122295385 30.057955
    vertex 71.22922499381995 25.042054750468317 0.0
    vertex 71.22922499381995 25.042054750468317 30.057955
  endloop
endfacet
facet normal -0.9914448613738104 0.130526192220053 0.0
  outer loop
    vertex 71.22922499381995 25.042054750468317 0.0
    vertex 72.16674051448393 32.163192122295385 30.057955
    vertex 72.16674051448393 32.163192122295385 0.0
  endloop
endfacet
facet normal -0.9914448613738104 -0.13052619222005182 -0.0
  outer loop
    vertex 71.22922499381997 39.284329494122424 30.057955
    vertex 72.16674051448393 32.163192122295385 0.0
    vertex 72.16674051448393 32.163192122295385 30.057955
  endloop
endfacet
facet normal -0.9914448613738104 -0.13052619222005182 -0.0
  outer loop
    vertex 72.16674051448393 32.163192122295385 0.0
    vertex 71.22922499381997 39.284329494122424 30.057955
    vertex 71.22922499381997 39.284329494122424 0.0
  endloop
endfacet
facet normal -0.9238795325112872 -0.3826834323650888 -0.0
  outer loop
    vertex 68.48056856524364 45.92017312229538 30.057955
    vertex 71.22922499381997 39.284329494122424 0.0
    vertex 71.22922499381997 39.284329494122424 30.057955
  endloop
endfacet
facet normal -0.9238795325112872 -0.3826834323650888 -0.0
  outer loop
    vertex 71.22922499381997 39.284329494122424 0.0
    vertex 68.48056856524364 45.92017312229538 30.057955
    vertex 68.48056856524364 45.92017312229538 0.0
  endloop
endfacet
facet normal -0.7933533402912348 -0.6087614290087211 -0.0
  outer loop
    vertex 64.10808762199292 51.61850122980436 30.057955
    vertex 68.48056856524364 45.92017312229538 0.0
    vertex 68.48056856524364 45.92017312229538 30.057955
  endloop
endfacet
facet normal -0.7933533402912348 -0.6087614290087211 -0.0
  outer loop
    vertex 68.48056856524364 45.92017312229538 0.0
    vertex 64.10808762199292 51.61850122980436 30.057955
    vertex 64.10808762199292 51.61850122980436 0.0
  endloop
endfacet
facet normal -0.6087614290087215 -0.7933533402912346 -0.0
  outer loop
    vertex 64.10808762199292 51.61850122980436 30.057955
    vertex 58.409759514483945 55.99098217305509 0.0
    vertex 64.10808762199292 51.61850122980436 0.0
  endloop
endfacet
facet normal -0.6087614290087215 -0.7933533402912346 -0.0
  outer loop
    vertex 58.409759514483945 55.99098217305509 0.0
    vertex 64.10808762199292 51.61850122980436 30.057955
    vertex 58.409759514483945 55.99098217305509 30.057955
  endloop
endfacet
facet normal -0.3826834323650896 -0.923879532511287 -0.0
  outer loop
    vertex 58.409759514483945 55.99098217305509 30.057955
    vertex 51.77391588631098 58.73963860163141 0.0
    vertex 58.409759514483945 55.99098217305509 0.0
  endloop
endfacet
facet normal -0.3826834323650896 -0.923879532511287 -0.0
  outer loop
    vertex 51.77391588631098 58.73963860163141 0.0
    vertex 58.409759514483945 55.99098217305509 30.057955
    vertex 51.77391588631098 58.73963860163141 30.057955
  endloop
endfacet
facet normal -0.1305261922200503 -0.9914448613738107 -0.0
  outer loop
    vertex 51.77391588631098 58.73963860163141 30.057955
    vertex 44.65277851448394 59.67715412229538 0.0
    vertex 51.77391588631098 58.73963860163141 0.0
  endloop
endfacet
facet normal -0.1305261922200503 -0.9914448613738107 -0.0
  outer loop
    vertex 44.65277851448394 59.67715412229538 0.0
    vertex 51.77391588631098 58.73963860163141 30.057955
    vertex 44.65277851448394 59.67715412229538 30.057955
  endloop
endfacet
facet normal 0.13052619222005038 -0.9914448613738106 0.0
  outer loop
    vertex 44.65277851448394 59.67715412229538 30.057955
    vertex 37.5316411426569 58.73963860163141 0.0
    vertex 44.65277851448394 59.67715412229538 0.0
  endloop
endfacet
facet normal 0.13052619222005038 -0.9914448613738106 0.0
  outer loop
    vertex 37.5316411426569 58.73963860163141 0.0
    vertex 44.65277851448394 59.67715412229538 30.057955
    vertex 37.5316411426569 58.73963860163141 30.057955
  endloop
endfacet
facet normal 0.3826834323650899 -0.9238795325112868 0.0
  outer loop
    vertex 37.5316411426569 58.73963860163141 30.057955
    vertex 30.89579751448394 55.99098217305509 0.0
    vertex 37.5316411426569 58.73963860163141 0.0
  endloop
endfacet
facet normal 0.3826834323650899 -0.9238795325112868 0.0
  outer loop
    vertex 30.89579751448394 55.99098217305509 0.0
    vertex 37.5316411426569 58.73963860163141 30.057955
    vertex 30.89579751448394 55.99098217305509 30.057955
  endloop
endfacet
facet normal 0.6087614290087211 -0.7933533402912348 0.0
  outer loop
    vertex 30.89579751448394 55.99098217305509 30.057955
    vertex 25.19746940697496 51.61850122980436 0.0
    vertex 30.89579751448394 55.99098217305509 0.0
  endloop
endfacet
facet normal 0.6087614290087211 -0.7933533402912348 0.0
  outer loop
    vertex 25.19746940697496 51.61850122980436 0.0
    vertex 30.89579751448394 55.99098217305509 30.057955
    vertex 25.19746940697496 51.61850122980436 30.057955
  endloop
endfacet
facet normal 0.7933533402912347 -0.6087614290087214 0.0
  outer loop
    vertex 25.19746940697496 51.61850122980436 0.0
    vertex 20.824988463724242 45.92017312229539 30.057955
    vertex 20.824988463724242 45.92017312229539 0.0
  endloop
endfacet
facet normal 0.7933533402912347 -0.6087614290087214 0.0
  outer loop
    vertex 20.824988463724242 45.92017312229539 30.057955
    vertex 25.19746940697496 51.61850122980436 0.0
    vertex 25.19746940697496 51.61850122980436 30.057955
  endloop
endfacet
facet normal 0.9238795325112868 -0.3826834323650899 0.0
  outer loop
    vertex 20.824988463724242 45.92017312229539 0.0
    vertex 18.076332035147917 39.28432949412243 30.057955
    vertex 18.076332035147917 39.28432949412243 0.0
  endloop
endfacet
facet normal 0.9238795325112868 -0.3826834323650899 0.0
  outer loop
    vertex 18.076332035147917 39.28432949412243 30.057955
    vertex 20.824988463724242 45.92017312229539 0.0
    vertex 20.824988463724242 45.92017312229539 30.057955
  endloop
endfacet
facet normal 0.9914448613738104 -0.13052619222005182 0.0
  outer loop
    vertex 18.076332035147917 39.28432949412243 0.0
    vertex 17.138816514483942 32.163192122295385 30.057955
    vertex 17.138816514483942 32.163192122295385 0.0
  endloop
endfacet
facet normal 0.9914448613738104 -0.13052619222005182 0.0
  outer loop
    vertex 17.138816514483942 32.163192122295385 30.057955
    vertex 18.076332035147917 39.28432949412243 0.0
    vertex 18.076332035147917 39.28432949412243 30.057955
  endloop
endfacet
facet normal 0.9914448613738106 0.13052619222005116 0.0
  outer loop
    vertex 17.138816514483942 32.163192122295385 0.0
    vertex 18.07633203514791 25.04205475046835 30.057955
    vertex 18.07633203514791 25.04205475046835 0.0
  endloop
endfacet
facet normal 0.9914448613738106 0.13052619222005116 0.0
  outer loop
    vertex 18.07633203514791 25.04205475046835 30.057955
    vertex 17.138816514483942 32.163192122295385 0.0
    vertex 17.138816514483942 32.163192122295385 30.057955
  endloop
endfacet
facet normal 0.9238795325112868 0.3826834323650895 0.0
  outer loop
    vertex 18.07633203514791 25.04205475046835 0.0
    vertex 20.824988463724235 18.40621112229539 30.057955
    vertex 20.824988463724235 18.40621112229539 0.0
  endloop
endfacet
facet normal 0.9238795325112868 0.3826834323650895 0.0
  outer loop
    vertex 20.824988463724235 18.40621112229539 30.057955
    vertex 18.07633203514791 25.04205475046835 0.0
    vertex 18.07633203514791 25.04205475046835 30.057955
  endloop
endfacet
facet normal 0.7933533402912355 0.6087614290087203 0.0
  outer loop
    vertex 20.824988463724235 18.40621112229539 0.0
    vertex 25.197469406974946 12.70788301478641 30.057955
    vertex 25.197469406974946 12.70788301478641 0.0
  endloop
endfacet
facet normal 0.7933533402912355 0.6087614290087203 0.0
  outer loop
    vertex 25.197469406974946 12.70788301478641 30.057955
    vertex 20.824988463724235 18.40621112229539 0.0
    vertex 20.824988463724235 18.40621112229539 30.057955
  endloop
endfacet
facet normal 0.6087614290087207 0.7933533402912352 0.0
  outer loop
    vertex 25.197469406974946 12.70788301478641 30.057955
    vertex 30.89579751448393 8.33540207153569 0.0
    vertex 25.197469406974946 12.70788301478641 0.0
  endloop
endfacet
facet normal 0.6087614290087207 0.7933533402912352 0.0
  outer loop
    vertex 30.89579751448393 8.33540207153569 0.0
    vertex 25.197469406974946 12.70788301478641 30.057955
    vertex 30.89579751448393 8.33540207153569 30.057955
  endloop
endfacet
facet normal 0.3826834323650907 0.9238795325112865 0.0
  outer loop
    vertex 30.89579751448393 8.33540207153569 30.057955
    vertex 37.53164114265687 5.586745642959364 0.0
    vertex 30.89579751448393 8.33540207153569 0.0
  endloop
endfacet
facet normal 0.3826834323650907 0.9238795325112865 0.0
  outer loop
    vertex 37.53164114265687 5.586745642959364 0.0
    vertex 30.89579751448393 8.33540207153569 30.057955
    vertex 37.53164114265687 5.586745642959364 30.057955
  endloop
endfacet
facet normal 0.1305261922200523 0.9914448613738104 0.0
  outer loop
    vertex 37.53164114265687 5.586745642959364 30.057955
    vertex 44.652778514483934 4.649230122295382 0.0
    vertex 37.53164114265687 5.586745642959364 0.0
  endloop
endfacet
facet normal 0.1305261922200523 0.9914448613738104 0.0
  outer loop
    vertex 44.652778514483934 4.649230122295382 0.0
    vertex 37.53164114265687 5.586745642959364 30.057955
    vertex 44.652778514483934 4.649230122295382 30.057955
  endloop
endfacet
facet normal -0.13052619222005116 0.9914448613738106 0.0
  outer loop
    vertex 44.652778514483934 4.649230122295382 30.057955
    vertex 51.773915886310974 5.586745642959353 0.0
    vertex 44.652778514483934 4.649230122295382 0.0
  endloop
endfacet
facet normal -0.13052619222005116 0.9914448613738106 0.0
  outer loop
    vertex 51.773915886310974 5.586745642959353 0.0
    vertex 44.652778514483934 4.649230122295382 30.057955
    vertex 51.773915886310974 5.586745642959353 30.057955
  endloop
endfacet
facet normal -0.38268343236508917 0.9238795325112872 0.0
  outer loop
    vertex 51.773915886310974 5.586745642959353 30.057955
    vertex 58.40975951448392 8.33540207153567 0.0
    vertex 51.773915886310974 5.586745642959353 0.0
  endloop
endfacet
facet normal -0.38268343236508917 0.9238795325112872 0.0
  outer loop
    vertex 58.40975951448392 8.33540207153567 0.0
    vertex 51.773915886310974 5.586745642959353 30.057955
    vertex 58.40975951448392 8.33540207153567 30.057955
  endloop
endfacet
facet normal -0.6087614290087208 0.7933533402912353 0.0
  outer loop
    vertex 58.40975951448392 8.33540207153567 30.057955
    vertex 64.10808762199291 12.707883014786393 0.0
    vertex 58.40975951448392 8.33540207153567 0.0
  endloop
endfacet
facet normal -0.6087614290087208 0.7933533402912353 0.0
  outer loop
    vertex 64.10808762199291 12.707883014786393 0.0
    vertex 58.40975951448392 8.33540207153567 30.057955
    vertex 64.10808762199291 12.707883014786393 30.057955
  endloop
endfacet
facet normal -0.7933533402912354 0.6087614290087205 0.0
  outer loop
    vertex 68.48056856524363 18.40621112229537 30.057955
    vertex 64.10808762199291 12.707883014786393 0.0
    vertex 64.10808762199291 12.707883014786393 30.057955
  endloop
endfacet
facet normal -0.7933533402912354 0.6087614290087205 0.0
  outer loop
    vertex 64.10808762199291 12.707883014786393 0.0
    vertex 68.48056856524363 18.40621112229537 30.057955
    vertex 68.48056856524363 18.40621112229537 0.0
  endloop
endfacet
facet normal -0.9238795325112865 0.38268343236509056 0.0
  outer loop
    vertex 71.22922499381995 25.042054750468317 30.057955
    vertex 68.48056856524363 18.40621112229537 0.0
    vertex 68.48056856524363 18.40621112229537 30.057955
  endloop
endfacet
facet normal -0.9238795325112865 0.38268343236509056 0.0
  outer loop
    vertex 68.48056856524363 18.40621112229537 0.0
    vertex 71.22922499381995 25.042054750468317 30.057955
    vertex 71.22922499381995 25.042054750468317 0.0
  endloop
endfacet
endsolid Molde Hamburger
