solid Tapa Led Vinoteca
facet normal 0.0 0.0 -1.0
  outer loop
    vertex 52.9572689659097 71.92638386013648 0.0
    vertex 27.956544965909696 38.42534786013649 0.0
    vertex 27.956544965909696 71.92638386013648 0.0
  endloop
endfacet
facet normal 0.0 0.0 -1.0
  outer loop
    vertex 27.956544965909696 38.42534786013649 0.0
    vertex 52.9572689659097 71.92638386013648 0.0
    vertex 52.9572689659097 38.42534786013649 0.0
  endloop
endfacet
facet normal 0.0 0.0 -1.0
  outer loop
    vertex 52.9572689659097 36.42284186013649 0.0
    vertex 27.956544965909696 34.415505860136484 0.0
    vertex 27.956544965909696 36.42284186013649 0.0
  endloop
endfacet
facet normal 0.0 0.0 -1.0
  outer loop
    vertex 27.956544965909696 34.415505860136484 0.0
    vertex 52.9572689659097 36.42284186013649 0.0
    vertex 52.9572689659097 34.415505860136484 0.0
  endloop
endfacet
facet normal 0.0 0.0 -1.0
  outer loop
    vertex 52.9572689659097 38.42534786013649 8.490042
    vertex 27.956544965909696 36.42284186013649 8.490042
    vertex 27.956544965909696 38.42534786013649 8.490042
  endloop
endfacet
facet normal 0.0 0.0 -1.0
  outer loop
    vertex 27.956544965909696 36.42284186013649 8.490042
    vertex 52.9572689659097 38.42534786013649 8.490042
    vertex 52.9572689659097 36.42284186013649 8.490042
  endloop
endfacet
facet normal -1.0 0.0 0.0
  outer loop
    vertex 52.9572689659097 38.42534786013649 8.490042
    vertex 52.9572689659097 36.42284186013649 0.0
    vertex 52.9572689659097 36.42284186013649 8.490042
  endloop
endfacet
facet normal -1.0 0.0 0.0
  outer loop
    vertex 52.9572689659097 36.42284186013649 0.0
    vertex 52.9572689659097 38.42534786013649 8.490042
    vertex 52.9572689659097 38.42534786013649 0.0
  endloop
endfacet
facet normal -1.0 0.0 0.0
  outer loop
    vertex 52.9572689659097 38.42534786013649 0.0
    vertex 52.9572689659097 38.42534786013649 8.490042
    vertex 52.9572689659097 38.42534786013649 2.0067619999999997
  endloop
endfacet
facet normal 1.0 -0.0 -0.0
  outer loop
    vertex 27.956544965909696 38.42534786013649 0.0
    vertex 27.956544965909696 36.42284186013649 8.490042
    vertex 27.956544965909696 36.42284186013649 0.0
  endloop
endfacet
facet normal 1.0 -0.0 -0.0
  outer loop
    vertex 27.956544965909696 36.42284186013649 8.490042
    vertex 27.956544965909696 38.42534786013649 0.0
    vertex 27.956544965909696 38.42534786013649 8.490042
  endloop
endfacet
facet normal 1.0 -0.0 -0.0
  outer loop
    vertex 27.956544965909696 38.42534786013649 8.490042
    vertex 27.956544965909696 38.42534786013649 0.0
    vertex 27.956544965909696 38.42534786013649 2.0067619999999997
  endloop
endfacet
facet normal -0.0 1.0 0.0
  outer loop
    vertex 27.956544965909696 38.42534786013649 8.490042
    vertex 52.9572689659097 38.42534786013649 2.0067619999999997
    vertex 27.956544965909696 38.42534786013649 2.0067619999999997
  endloop
endfacet
facet normal -0.0 1.0 0.0
  outer loop
    vertex 52.9572689659097 38.42534786013649 2.0067619999999997
    vertex 27.956544965909696 38.42534786013649 8.490042
    vertex 52.9572689659097 38.42534786013649 8.490042
  endloop
endfacet
facet normal 1.0 -0.0 -0.0
  outer loop
    vertex 52.9572689659097 36.42284186013649 0.0
    vertex 52.9572689659097 34.415505860136484 30.522442999999974
    vertex 52.9572689659097 34.415505860136484 0.0
  endloop
endfacet
facet normal 1.0 -0.0 -0.0
  outer loop
    vertex 52.9572689659097 34.415505860136484 30.522442999999974
    vertex 52.9572689659097 36.42284186013649 0.0
    vertex 52.9572689659097 36.42284186013649 30.522442999999974
  endloop
endfacet
facet normal 1.0 -0.0 -0.0
  outer loop
    vertex 52.9572689659097 36.42284186013649 30.522442999999974
    vertex 52.9572689659097 36.42284186013649 0.0
    vertex 52.9572689659097 36.42284186013649 8.490042
  endloop
endfacet
facet normal -0.0 -1.0 -0.0
  outer loop
    vertex 52.9572689659097 34.415505860136484 30.522442999999974
    vertex 27.956544965909696 34.415505860136484 0.0
    vertex 52.9572689659097 34.415505860136484 0.0
  endloop
endfacet
facet normal -0.0 -1.0 -0.0
  outer loop
    vertex 27.956544965909696 34.415505860136484 0.0
    vertex 52.9572689659097 34.415505860136484 30.522442999999974
    vertex 27.956544965909696 34.415505860136484 30.522442999999974
  endloop
endfacet
facet normal -1.0 0.0 0.0
  outer loop
    vertex 27.956544965909696 36.42284186013649 30.522442999999974
    vertex 27.956544965909696 34.415505860136484 0.0
    vertex 27.956544965909696 34.415505860136484 30.522442999999974
  endloop
endfacet
facet normal -1.0 0.0 0.0
  outer loop
    vertex 27.956544965909696 34.415505860136484 0.0
    vertex 27.956544965909696 36.42284186013649 30.522442999999974
    vertex 27.956544965909696 36.42284186013649 0.0
  endloop
endfacet
facet normal -1.0 0.0 0.0
  outer loop
    vertex 27.956544965909696 36.42284186013649 0.0
    vertex 27.956544965909696 36.42284186013649 30.522442999999974
    vertex 27.956544965909696 36.42284186013649 8.490042
  endloop
endfacet
facet normal 0.0 0.0 1.0
  outer loop
    vertex 52.9572689659097 34.415505860136484 30.522442999999974
    vertex 27.956544965909696 36.42284186013649 30.522442999999974
    vertex 27.956544965909696 34.415505860136484 30.522442999999974
  endloop
endfacet
facet normal 0.0 0.0 1.0
  outer loop
    vertex 27.956544965909696 36.42284186013649 30.522442999999974
    vertex 52.9572689659097 34.415505860136484 30.522442999999974
    vertex 52.9572689659097 36.42284186013649 30.522442999999974
  endloop
endfacet
facet normal 0.0 1.0 0.0
  outer loop
    vertex 27.956544965909696 36.42284186013649 30.522442999999974
    vertex 52.9572689659097 36.42284186013649 8.490042
    vertex 27.956544965909696 36.42284186013649 8.490042
  endloop
endfacet
facet normal 0.0 1.0 0.0
  outer loop
    vertex 52.9572689659097 36.42284186013649 8.490042
    vertex 27.956544965909696 36.42284186013649 30.522442999999974
    vertex 52.9572689659097 36.42284186013649 30.522442999999974
  endloop
endfacet
facet normal 0.0 0.0 1.0
  outer loop
    vertex 52.9572689659097 38.42534786013649 2.0067619999999997
    vertex 27.956544965909696 71.92638386013648 2.0067619999999997
    vertex 27.956544965909696 38.42534786013649 2.0067619999999997
  endloop
endfacet
facet normal 0.0 0.0 1.0
  outer loop
    vertex 27.956544965909696 71.92638386013648 2.0067619999999997
    vertex 52.9572689659097 38.42534786013649 2.0067619999999997
    vertex 52.9572689659097 71.92638386013648 2.0067619999999997
  endloop
endfacet
facet normal -0.0 1.0 0.0
  outer loop
    vertex 27.956544965909696 71.92638386013648 2.0067619999999997
    vertex 52.9572689659097 71.92638386013648 0.0
    vertex 27.956544965909696 71.92638386013648 0.0
  endloop
endfacet
facet normal -0.0 1.0 0.0
  outer loop
    vertex 52.9572689659097 71.92638386013648 0.0
    vertex 27.956544965909696 71.92638386013648 2.0067619999999997
    vertex 52.9572689659097 71.92638386013648 2.0067619999999997
  endloop
endfacet
facet normal 1.0 0.0 0.0
  outer loop
    vertex 52.9572689659097 71.92638386013648 0.0
    vertex 52.9572689659097 38.42534786013649 2.0067619999999997
    vertex 52.9572689659097 38.42534786013649 0.0
  endloop
endfacet
facet normal 1.0 0.0 0.0
  outer loop
    vertex 52.9572689659097 38.42534786013649 2.0067619999999997
    vertex 52.9572689659097 71.92638386013648 0.0
    vertex 52.9572689659097 71.92638386013648 2.0067619999999997
  endloop
endfacet
facet normal -1.0 0.0 0.0
  outer loop
    vertex 27.956544965909696 71.92638386013648 2.0067619999999997
    vertex 27.956544965909696 38.42534786013649 0.0
    vertex 27.956544965909696 38.42534786013649 2.0067619999999997
  endloop
endfacet
facet normal -1.0 0.0 0.0
  outer loop
    vertex 27.956544965909696 38.42534786013649 0.0
    vertex 27.956544965909696 71.92638386013648 2.0067619999999997
    vertex 27.956544965909696 71.92638386013648 0.0
  endloop
endfacet
endsolid Tapa Led Vinoteca
