<?xml version="1.0" encoding="UTF-8" standalone="no"?>
<!-- Created with Inkscape (http://www.inkscape.org/) -->

<svg
   xmlns:dc="http://purl.org/dc/elements/1.1/"
   xmlns:cc="http://creativecommons.org/ns#"
   xmlns:rdf="http://www.w3.org/1999/02/22-rdf-syntax-ns#"
   xmlns:svg="http://www.w3.org/2000/svg"
   xmlns="http://www.w3.org/2000/svg"
   xmlns:sodipodi="http://sodipodi.sourceforge.net/DTD/sodipodi-0.dtd"
   xmlns:inkscape="http://www.inkscape.org/namespaces/inkscape"
   width="210mm"
   height="297mm"
   viewBox="0 0 210 297"
   version="1.1"
   id="svg8"
   inkscape:version="0.92.1 r15371"
   sodipodi:docname="dibujo.svg">
  <defs
     id="defs2" />
  <sodipodi:namedview
     id="base"
     pagecolor="#ffffff"
     bordercolor="#666666"
     borderopacity="1.0"
     inkscape:pageopacity="0.0"
     inkscape:pageshadow="2"
     inkscape:zoom="0.35"
     inkscape:cx="-122.85714"
     inkscape:cy="560"
     inkscape:document-units="mm"
     inkscape:current-layer="layer1"
     showgrid="false"
     inkscape:window-width="1920"
     inkscape:window-height="1000"
     inkscape:window-x="-11"
     inkscape:window-y="-11"
     inkscape:window-maximized="1" />
  <metadata
     id="metadata5">
    <rdf:RDF>
      <cc:Work
         rdf:about="">
        <dc:format>image/svg+xml</dc:format>
        <dc:type
           rdf:resource="http://purl.org/dc/dcmitype/StillImage" />
        <dc:title></dc:title>
      </cc:Work>
    </rdf:RDF>
  </metadata>
  <g
     inkscape:label="Capa 1"
     inkscape:groupmode="layer"
     id="layer1">
    <g
       aria-label="OSCAR"
       style="font-style:normal;font-weight:normal;font-size:10.58333302px;line-height:1.25;font-family:sans-serif;letter-spacing:0px;word-spacing:0px;fill:#000000;fill-opacity:1;stroke:none;stroke-width:0.26458332"
       id="text3682"
       transform="translate(-55.184524,-77.107143)">
      <path
         d="m 44.567231,74.74262 q 0.470256,0.516764 0.718303,1.266073 0.253214,0.749308 0.253214,1.700154 0,0.950846 -0.258382,1.705322 -0.253214,0.749309 -0.713135,1.25057 -0.475423,0.521932 -1.126546,0.785482 -0.645955,0.26355 -1.477946,0.26355 -0.81132,0 -1.477946,-0.268718 -0.661458,-0.268717 -1.126546,-0.780314 -0.465088,-0.511597 -0.718302,-1.255737 -0.248047,-0.744141 -0.248047,-1.700155 0,-0.940511 0.248047,-1.684651 0.248047,-0.749309 0.72347,-1.281576 0.454752,-0.506429 1.126546,-0.775146 0.676961,-0.268718 1.472778,-0.268718 0.826823,0 1.483114,0.273885 0.661458,0.268718 1.121378,0.769979 z m -0.09302,2.966227 q 0,-1.498616 -0.671794,-2.309936 -0.671793,-0.816488 -1.834513,-0.816488 -1.173055,0 -1.844849,0.816488 -0.666626,0.81132 -0.666626,2.309936 0,1.51412 0.682129,2.320272 0.682129,0.800985 1.829346,0.800985 1.147217,0 1.824178,-0.800985 0.682129,-0.806152 0.682129,-2.320272 z"
         style="stroke-width:0.26458332"
         id="path3684"
         inkscape:connector-curvature="0" />
      <path
         d="m 52.752778,79.357325 q 0,0.449585 -0.211874,0.888835 -0.206706,0.43925 -0.583943,0.744141 -0.413412,0.330729 -0.96635,0.516764 -0.54777,0.186035 -1.322916,0.186035 -0.831991,0 -1.498617,-0.155029 -0.661458,-0.15503 -1.348755,-0.459921 v -1.281575 h 0.07235 q 0.583944,0.485758 1.348755,0.749308 0.764811,0.26355 1.436605,0.26355 0.950846,0 1.477946,-0.356567 0.532267,-0.356568 0.532267,-0.950847 0,-0.511596 -0.253214,-0.754476 -0.248047,-0.242879 -0.759644,-0.377238 -0.387573,-0.103352 -0.842326,-0.170532 -0.449585,-0.06718 -0.956014,-0.170532 -1.023193,-0.217041 -1.519287,-0.738973 -0.490926,-0.5271 -0.490926,-1.369425 0,-0.96635 0.816488,-1.581299 0.816487,-0.620117 2.072225,-0.620117 0.81132,0 1.488281,0.155029 0.676961,0.155029 1.198893,0.382406 v 1.209228 h -0.07235 q -0.43925,-0.37207 -1.157552,-0.614949 -0.713135,-0.248047 -1.462443,-0.248047 -0.821655,0 -1.322917,0.341064 -0.496093,0.341065 -0.496093,0.878499 0,0.480591 0.248046,0.754476 0.248047,0.273885 0.873332,0.418579 0.330729,0.07235 0.940511,0.1757 0.609782,0.103353 1.033529,0.211874 0.857828,0.227376 1.291911,0.687296 0.434082,0.45992 0.434082,1.286743 z"
         style="stroke-width:0.26458332"
         id="path3686"
         inkscape:connector-curvature="0" />
      <path
         d="m 60.338877,80.995468 q -0.28422,0.124024 -0.516764,0.232544 -0.227376,0.108521 -0.599446,0.227376 -0.315227,0.09819 -0.687297,0.165365 -0.366903,0.07235 -0.81132,0.07235 -0.837158,0 -1.524455,-0.232544 -0.682129,-0.237712 -1.188558,-0.738973 -0.496093,-0.490926 -0.775146,-1.245402 -0.279053,-0.759643 -0.279053,-1.762166 0,-0.950847 0.268718,-1.700155 0.268717,-0.749308 0.775146,-1.266072 0.490926,-0.501262 1.18339,-0.764811 0.697632,-0.26355 1.545126,-0.26355 0.620117,0 1.235066,0.149861 0.620118,0.149862 1.374593,0.5271 v 1.214396 h -0.07751 q -0.63562,-0.532267 -1.260905,-0.775146 -0.625285,-0.24288 -1.33842,-0.24288 -0.583943,0 -1.054199,0.191203 -0.465088,0.186035 -0.83199,0.583944 -0.356568,0.387573 -0.558106,0.981852 -0.19637,0.589111 -0.19637,1.364258 0,0.81132 0.217041,1.395263 0.222208,0.583944 0.56844,0.950847 0.361736,0.382405 0.842326,0.56844 0.485759,0.180868 1.023194,0.180868 0.738973,0 1.384928,-0.253215 0.645955,-0.253214 1.209228,-0.759643 h 0.07235 z"
         style="stroke-width:0.26458332"
         id="path3688"
         inkscape:connector-curvature="0" />
      <path
         d="m 67.862966,81.553574 h -1.090372 l -0.754476,-2.144572 h -3.327962 l -0.754476,2.144572 h -1.038697 l 2.800863,-7.694621 h 1.364258 z m -2.160074,-3.023072 -1.348755,-3.777547 -1.353923,3.777547 z"
         style="stroke-width:0.26458332"
         id="path3690"
         inkscape:connector-curvature="0" />
      <path
         d="m 75.397389,81.553574 h -1.328084 l -2.573487,-3.059245 h -1.441772 v 3.059245 h -1.023193 v -7.694621 h 2.154907 q 0.697632,0 1.162719,0.09302 0.465088,0.08785 0.837159,0.320394 0.418579,0.263549 0.651123,0.666625 0.237711,0.397909 0.237711,1.012859 0,0.83199 -0.418579,1.395263 -0.418579,0.558106 -1.152384,0.842326 z M 73.00477,76.024196 q 0,-0.33073 -0.118856,-0.583944 -0.113688,-0.258382 -0.382405,-0.434082 -0.222209,-0.149862 -0.5271,-0.206706 -0.304891,-0.06201 -0.718302,-0.06201 h -1.204061 v 2.904216 h 1.033529 q 0.485758,0 0.847493,-0.08268 0.361735,-0.08785 0.61495,-0.320394 0.232543,-0.217041 0.341064,-0.496094 0.113688,-0.28422 0.113688,-0.718302 z"
         style="stroke-width:0.26458332"
         id="path3692"
         inkscape:connector-curvature="0" />
    </g>
  </g>
</svg>
